<?xml version="1.0" encoding="utf-8"?>
<!-- Generator: Adobe Illustrator 23.0.3, SVG Export Plug-In . SVG Version: 6.00 Build 0)  -->
<svg version="1.1"
	 id="svg2890" xmlns:cc="http://creativecommons.org/ns#" xmlns:dc="http://purl.org/dc/elements/1.1/" xmlns:inkscape="http://www.inkscape.org/namespaces/inkscape" xmlns:rdf="http://www.w3.org/1999/02/22-rdf-syntax-ns#" xmlns:sodipodi="http://sodipodi.sourceforge.net/DTD/sodipodi-0.dtd" xmlns:svg="http://www.w3.org/2000/svg"
	 xmlns="http://www.w3.org/2000/svg" xmlns:xlink="http://www.w3.org/1999/xlink" x="0px" y="0px" viewBox="0 0 801.9 751.7"
	 style="enable-background:new 0 0 801.9 751.7;" xml:space="preserve">
<style type="text/css">
	.st0{fill-rule:evenodd;clip-rule:evenodd;fill:url(#logo-background_1_);}
	.st1{fill-rule:evenodd;clip-rule:evenodd;fill:#330080;}
	.st2{fill:#330080;}
	.st3{fill:#ECECEC;}
	.st4{font-family:'Arial-BoldMT';}
	.st5{font-size:180px;}
	.st6{font-size:200px;}
</style>
<defs>
	
	
		<inkscape:perspective  id="perspective2898" inkscape:persp3d-origin="400 : 200 : 1" inkscape:vp_x="0 : 300 : 1" inkscape:vp_y="0 : 1000 : 0" inkscape:vp_z="800 : 300 : 1" sodipodi:type="inkscape:persp3d">
		</inkscape:perspective>
	
		<inkscape:perspective  id="perspective2914" inkscape:persp3d-origin="0.5 : 0.33333333 : 1" inkscape:vp_x="0 : 0.5 : 1" inkscape:vp_y="0 : 1000 : 0" inkscape:vp_z="1 : 0.5 : 1" sodipodi:type="inkscape:persp3d">
		</inkscape:perspective>
	
		<inkscape:perspective  id="perspective2942" inkscape:persp3d-origin="0.5 : 0.33333333 : 1" inkscape:vp_x="0 : 0.5 : 1" inkscape:vp_y="0 : 1000 : 0" inkscape:vp_z="1 : 0.5 : 1" sodipodi:type="inkscape:persp3d">
		</inkscape:perspective>
	
		<inkscape:perspective  id="perspective3760" inkscape:persp3d-origin="0.5 : 0.33333333 : 1" inkscape:vp_x="0 : 0.5 : 1" inkscape:vp_y="0 : 1000 : 0" inkscape:vp_z="1 : 0.5 : 1" sodipodi:type="inkscape:persp3d">
		</inkscape:perspective>
</defs>
<sodipodi:namedview  bordercolor="#666666" borderlayer="false" borderopacity="1.0" id="base" inkscape:current-layer="layer1" inkscape:cx="191.82606" inkscape:cy="242.50319" inkscape:document-units="px" inkscape:pageopacity="0.0" inkscape:pageshadow="2" inkscape:snap-grids="false" inkscape:snap-page="false" inkscape:snap-to-guides="false" inkscape:window-height="886" inkscape:window-maximized="0" inkscape:window-width="1082" inkscape:window-x="421" inkscape:window-y="115" inkscape:zoom="0.6" pagecolor="#ffffff" showborder="false" showgrid="false">
	</sodipodi:namedview>
<g id="layer1" transform="translate(1.2191081,151.66667)" inkscape:groupmode="layer" inkscape:label="Layer 1">
	
		<linearGradient id="logo-background_1_" gradientUnits="userSpaceOnUse" x1="398.2626" y1="689.9006" x2="398.2625" y2="634.9006" gradientTransform="matrix(1 0 0 1 2.4382 -90)">
		<stop  offset="0" style="stop-color:#BBBBBB"/>
		<stop  offset="1" style="stop-color:#EEEEEE"/>
	</linearGradient>
	<path id="logo-background" inkscape:label="logo-background" class="st0" d="M100.3-151.7h600.8c21.2,0,38.3,17.2,38.3,38.3v675
		c0,21.2-17.2,38.3-38.3,38.3H100.3C79.2,600,62,582.8,62,561.7v-675C62-134.5,79.2-151.7,100.3-151.7z"/>
	<rect id="rect2904" x="0.5" y="206.9" class="st1" width="799.5" height="242.2"/>
	<path id="path2932" class="st2" d="M31,470.6c-17.2-12.4-31.2-22.7-31.1-22.7c0.1,0,13.9-0.1,30.6-0.1H61l0.7,22.6
		c0.4,12.4,0.7,22.6,0.6,22.7C62.3,493.1,48.2,483,31,470.6L31,470.6L31,470.6z"/>
	<path id="path2932-2" class="st2" d="M769.9,471.3c17-12.7,30.9-23.1,30.8-23.1c-0.1,0-13.9,0.1-30.6,0.3l-30.5,0.4l-0.4,22.6
		c-0.2,12.4-0.4,22.6-0.3,22.7C738.9,494.2,752.9,483.9,769.9,471.3L769.9,471.3L769.9,471.3z"/>
	<g id="flowRoot3796" transform="translate(0,-200)">
	</g>
	<text transform="matrix(1 0 0 1 72.9805 384.3333)" class="st3 st4 st5">SMASH</text>
	<text transform="matrix(1 0 0 1 228.2168 152.6666)" class="st2 st4 st6">gut</text>
</g>
</svg>
