<?xml version="1.0" encoding="utf-8"?>
<!-- Generator: Adobe Illustrator 23.0.3, SVG Export Plug-In . SVG Version: 6.00 Build 0)  -->
<svg version="1.1" id="Layer_1" xmlns="http://www.w3.org/2000/svg" xmlns:xlink="http://www.w3.org/1999/xlink" x="0px" y="0px"
	 viewBox="0 0 40 40" style="enable-background:new 0 0 40 40;" xml:space="preserve">
<style type="text/css">
	.st0{fill:#330080;}
</style>
<g transform="translate(0.000000,40.000000) scale(0.100000,-0.100000)">
	<path class="st0" d="M125,366c-16-8-42-26-57-42C-40,208,42,20,199,20c159,0,241,188,133,304C281,378,192,396,125,366z M240,256
		c0-67,2-75,20-78c19-3,18-7-15-53c-20-27-40-50-46-50c-5,0-25,23-45,50c-33,47-34,50-15,53s21,10,21,78v74h40h40V256z"/>
</g>
</svg>
