<?xml version="1.0" encoding="utf-8"?>
<!-- Generator: Adobe Illustrator 23.0.3, SVG Export Plug-In . SVG Version: 6.00 Build 0)  -->
<svg version="1.1"
	 id="svg3336" xmlns:cc="http://creativecommons.org/ns#" xmlns:dc="http://purl.org/dc/elements/1.1/" xmlns:inkscape="http://www.inkscape.org/namespaces/inkscape" xmlns:rdf="http://www.w3.org/1999/02/22-rdf-syntax-ns#" xmlns:sodipodi="http://sodipodi.sourceforge.net/DTD/sodipodi-0.dtd" xmlns:svg="http://www.w3.org/2000/svg"
	 xmlns="http://www.w3.org/2000/svg" xmlns:xlink="http://www.w3.org/1999/xlink" x="0px" y="0px" viewBox="0 0 783.1 708.7"
	 style="enable-background:new 0 0 783.1 708.7;" xml:space="preserve">
<style type="text/css">
	.st0{fill:#330080;stroke:#FFFFFF;stroke-width:10;}
	.st1{fill:#FFFFFF;}
</style>
<defs>
	
	
		<inkscape:path-effect  cusp_linecap_type="round" effect="powerstroke" end_linecap_type="zerowidth" id="path-effect4307" interpolator_beta="0.2" interpolator_type="Linear" is_visible="true" linejoin_type="round" miter_limit="4" offset_points="0,5.9268906" sort_points="true" start_linecap_type="zerowidth">
		</inkscape:path-effect>
	
		<inkscape:path-effect  cusp_linecap_type="round" effect="powerstroke" end_linecap_type="zerowidth" id="path-effect4303" interpolator_beta="0.2" interpolator_type="Linear" is_visible="true" linejoin_type="round" miter_limit="4" offset_points="0.026733194,6.8624927" sort_points="true" start_linecap_type="zerowidth">
		</inkscape:path-effect>
	
		<inkscape:path-effect  cusp_linecap_type="round" effect="powerstroke" end_linecap_type="zerowidth" id="path-effect4299" interpolator_beta="0.2" interpolator_type="Linear" is_visible="true" linejoin_type="round" miter_limit="4" offset_points="0,6.6369318" sort_points="true" start_linecap_type="zerowidth">
		</inkscape:path-effect>
	
		<inkscape:path-effect  cusp_linecap_type="round" effect="powerstroke" end_linecap_type="zerowidth" id="path-effect4295" interpolator_beta="0.2" interpolator_type="Linear" is_visible="true" linejoin_type="round" miter_limit="4" offset_points="0,8.3410323" sort_points="true" start_linecap_type="zerowidth">
		</inkscape:path-effect>
	
		<inkscape:path-effect  cusp_linecap_type="round" effect="powerstroke" end_linecap_type="zerowidth" id="path-effect4291" interpolator_beta="0.2" interpolator_type="Linear" is_visible="true" linejoin_type="round" miter_limit="4" offset_points="0,7.5060502" sort_points="true" start_linecap_type="zerowidth">
		</inkscape:path-effect>
	
		<inkscape:path-effect  cusp_linecap_type="round" effect="powerstroke" end_linecap_type="zerowidth" id="path-effect4287" interpolator_beta="0.2" interpolator_type="Linear" is_visible="true" linejoin_type="round" miter_limit="4" offset_points="0,6.7721406" sort_points="true" start_linecap_type="zerowidth">
		</inkscape:path-effect>
	
		<inkscape:path-effect  cusp_linecap_type="round" effect="powerstroke" end_linecap_type="zerowidth" id="path-effect4283" interpolator_beta="0.2" interpolator_type="Linear" is_visible="true" linejoin_type="round" miter_limit="4" offset_points="0,7.5228959" sort_points="true" start_linecap_type="zerowidth">
		</inkscape:path-effect>
	
		<inkscape:path-effect  cusp_linecap_type="round" effect="powerstroke" end_linecap_type="zerowidth" id="path-effect4279" interpolator_beta="0.2" interpolator_type="Linear" is_visible="true" linejoin_type="round" miter_limit="4" offset_points="0,5.1209917" sort_points="true" start_linecap_type="zerowidth">
		</inkscape:path-effect>
	
		<inkscape:path-effect  cusp_linecap_type="round" effect="powerstroke" end_linecap_type="zerowidth" id="path-effect4275" interpolator_beta="0.2" interpolator_type="Linear" is_visible="true" linejoin_type="round" miter_limit="4" offset_points="0,6.4293649" sort_points="true" start_linecap_type="zerowidth">
		</inkscape:path-effect>
	
		<inkscape:path-effect  cusp_linecap_type="round" effect="powerstroke" end_linecap_type="zerowidth" id="path-effect4271" interpolator_beta="0.2" interpolator_type="Linear" is_visible="true" linejoin_type="round" miter_limit="4" offset_points="0,6.4919251" sort_points="true" start_linecap_type="zerowidth">
		</inkscape:path-effect>
	
		<inkscape:path-effect  cusp_linecap_type="round" effect="powerstroke" end_linecap_type="zerowidth" id="path-effect4267" interpolator_beta="0.2" interpolator_type="Linear" is_visible="true" linejoin_type="round" miter_limit="4" offset_points="0,6.3997913" sort_points="true" start_linecap_type="zerowidth">
		</inkscape:path-effect>
	
		<inkscape:path-effect  cusp_linecap_type="round" effect="powerstroke" end_linecap_type="zerowidth" id="path-effect4263" interpolator_beta="0.2" interpolator_type="Linear" is_visible="true" linejoin_type="round" miter_limit="4" offset_points="0.046333338,4.9701747" sort_points="true" start_linecap_type="zerowidth">
		</inkscape:path-effect>
	
		<inkscape:path-effect  cusp_linecap_type="round" effect="powerstroke" end_linecap_type="zerowidth" id="path-effect4259" interpolator_beta="0.2" interpolator_type="Linear" is_visible="true" linejoin_type="round" miter_limit="4" offset_points="0,5.9111902" sort_points="true" start_linecap_type="zerowidth">
		</inkscape:path-effect>
	
		<inkscape:path-effect  cusp_linecap_type="round" effect="powerstroke" end_linecap_type="zerowidth" id="path-effect4255" interpolator_beta="0.2" interpolator_type="Linear" is_visible="true" linejoin_type="round" miter_limit="4" offset_points="0.0070820068,7.5023641" sort_points="true" start_linecap_type="zerowidth">
		</inkscape:path-effect>
	
		<inkscape:path-effect  cusp_linecap_type="round" effect="powerstroke" end_linecap_type="zerowidth" id="path-effect4251" interpolator_beta="0.2" interpolator_type="Linear" is_visible="true" linejoin_type="round" miter_limit="4" offset_points="0,7.5035322" sort_points="true" start_linecap_type="zerowidth">
		</inkscape:path-effect>
	
		<inkscape:path-effect  cusp_linecap_type="round" effect="powerstroke" end_linecap_type="zerowidth" id="path-effect4247" interpolator_beta="0.2" interpolator_type="Linear" is_visible="true" linejoin_type="round" miter_limit="4" offset_points="0,8.1336792" sort_points="true" start_linecap_type="zerowidth">
		</inkscape:path-effect>
	
		<inkscape:path-effect  cusp_linecap_type="round" effect="powerstroke" end_linecap_type="zerowidth" id="path-effect4243" interpolator_beta="0.2" interpolator_type="Linear" is_visible="true" linejoin_type="round" miter_limit="4" offset_points="0,7.1156561" sort_points="true" start_linecap_type="zerowidth">
		</inkscape:path-effect>
	
		<inkscape:path-effect  cusp_linecap_type="round" effect="powerstroke" end_linecap_type="zerowidth" id="path-effect4239" interpolator_beta="0.2" interpolator_type="Linear" is_visible="true" linejoin_type="round" miter_limit="4" offset_points="0.082126769,6.233141" sort_points="true" start_linecap_type="zerowidth">
		</inkscape:path-effect>
	
		<inkscape:path-effect  cusp_linecap_type="round" effect="powerstroke" end_linecap_type="zerowidth" id="path-effect4235" interpolator_beta="0.2" interpolator_type="Linear" is_visible="true" linejoin_type="round" miter_limit="4" offset_points="0.025731388,9.1185796" sort_points="true" start_linecap_type="zerowidth">
		</inkscape:path-effect>
	
		<inkscape:path-effect  cusp_linecap_type="round" effect="powerstroke" end_linecap_type="zerowidth" id="path-effect4231" interpolator_beta="0.2" interpolator_type="Linear" is_visible="true" linejoin_type="round" miter_limit="4" offset_points="0,7.9445503" sort_points="true" start_linecap_type="zerowidth">
		</inkscape:path-effect>
	
		<inkscape:path-effect  cusp_linecap_type="round" effect="powerstroke" end_linecap_type="zerowidth" id="path-effect4227" interpolator_beta="0.2" interpolator_type="Linear" is_visible="true" linejoin_type="round" miter_limit="4" offset_points="0,8.1144623" sort_points="true" start_linecap_type="zerowidth">
		</inkscape:path-effect>
	
		<inkscape:path-effect  cusp_linecap_type="round" effect="powerstroke" end_linecap_type="zerowidth" id="path-effect4219" interpolator_beta="0.2" interpolator_type="Linear" is_visible="true" linejoin_type="round" miter_limit="4" offset_points="0.0048771011,5.1564751" sort_points="true" start_linecap_type="zerowidth">
		</inkscape:path-effect>
	
		<inkscape:path-effect  cusp_linecap_type="round" effect="powerstroke" end_linecap_type="zerowidth" id="path-effect4215" interpolator_beta="0.2" interpolator_type="Linear" is_visible="true" linejoin_type="round" miter_limit="4" offset_points="0.016453747,6.3754177" sort_points="true" start_linecap_type="zerowidth">
		</inkscape:path-effect>
	
		<inkscape:path-effect  cusp_linecap_type="round" effect="powerstroke" end_linecap_type="zerowidth" id="path-effect4211" interpolator_beta="0.2" interpolator_type="Linear" is_visible="true" linejoin_type="round" miter_limit="4" offset_points="0.0061579568,6.0324861" sort_points="true" start_linecap_type="zerowidth">
		</inkscape:path-effect>
	
		<inkscape:path-effect  cusp_linecap_type="round" effect="powerstroke" end_linecap_type="zerowidth" id="path-effect4207" interpolator_beta="0.2" interpolator_type="Linear" is_visible="true" linejoin_type="round" miter_limit="4" offset_points="0,6.6479273" sort_points="true" start_linecap_type="zerowidth">
		</inkscape:path-effect>
	
		<inkscape:path-effect  cusp_linecap_type="round" effect="powerstroke" end_linecap_type="zerowidth" id="path-effect4203" interpolator_beta="0.2" interpolator_type="Linear" is_visible="true" linejoin_type="round" miter_limit="4" offset_points="0.0066023994,7.9428586" sort_points="true" start_linecap_type="zerowidth">
		</inkscape:path-effect>
	
		<inkscape:path-effect  cusp_linecap_type="round" effect="powerstroke" end_linecap_type="zerowidth" id="path-effect4195" interpolator_beta="0.2" interpolator_type="Linear" is_visible="true" linejoin_type="round" miter_limit="4" offset_points="0.060960206,6.0098933" sort_points="true" start_linecap_type="zerowidth">
		</inkscape:path-effect>
	
		<inkscape:path-effect  cusp_linecap_type="round" effect="powerstroke" end_linecap_type="zerowidth" id="path-effect4191" interpolator_beta="0.2" interpolator_type="Linear" is_visible="true" linejoin_type="round" miter_limit="4" offset_points="0.076620772,6.7303742" sort_points="true" start_linecap_type="zerowidth">
		</inkscape:path-effect>
	
		<inkscape:path-effect  cusp_linecap_type="round" effect="powerstroke" end_linecap_type="zerowidth" id="path-effect4209" interpolator_beta="0.2" interpolator_type="Linear" is_visible="true" linejoin_type="round" miter_limit="4" offset_points="0.041439278,8.8198271" sort_points="true" start_linecap_type="zerowidth">
		</inkscape:path-effect>
	
		<inkscape:path-effect  cusp_linecap_type="round" effect="powerstroke" end_linecap_type="zerowidth" id="path-effect4166" interpolator_beta="0.2" interpolator_type="Linear" is_visible="true" linejoin_type="round" miter_limit="4" offset_points="0.31428378,1.323707" sort_points="true" start_linecap_type="zerowidth">
		</inkscape:path-effect>
	
		<inkscape:path-effect  cusp_linecap_type="round" effect="powerstroke" end_linecap_type="zerowidth" id="path-effect4162" interpolator_beta="0.2" interpolator_type="Linear" is_visible="true" linejoin_type="round" miter_limit="4" offset_points="0,3" sort_points="true" start_linecap_type="zerowidth">
		</inkscape:path-effect>
	
		<inkscape:path-effect  cusp_linecap_type="round" effect="powerstroke" end_linecap_type="zerowidth" id="path-effect4158" interpolator_beta="0.2" interpolator_type="Linear" is_visible="true" linejoin_type="round" miter_limit="4" offset_points="0,3" sort_points="true" start_linecap_type="zerowidth">
		</inkscape:path-effect>
	
		<inkscape:path-effect  cusp_linecap_type="round" effect="powerstroke" end_linecap_type="zerowidth" id="path-effect4166-3" interpolator_beta="0.2" interpolator_type="Linear" is_visible="true" linejoin_type="round" miter_limit="4" offset_points="0.31428378,1.323707" sort_points="true" start_linecap_type="zerowidth">
		</inkscape:path-effect>
	
		<inkscape:path-effect  cusp_linecap_type="round" effect="powerstroke" end_linecap_type="zerowidth" id="path-effect4209-3" interpolator_beta="0.2" interpolator_type="Linear" is_visible="true" linejoin_type="round" miter_limit="4" offset_points="0.019449617,10.034285" sort_points="true" start_linecap_type="zerowidth">
		</inkscape:path-effect>
	
		<inkscape:path-effect  cusp_linecap_type="round" effect="powerstroke" end_linecap_type="zerowidth" id="path-effect4209-3-7" interpolator_beta="0.2" interpolator_type="Linear" is_visible="true" linejoin_type="round" miter_limit="4" offset_points="0.0126889,8.2789289" sort_points="true" start_linecap_type="zerowidth">
		</inkscape:path-effect>
</defs>
<sodipodi:namedview  bordercolor="#666666" borderopacity="1" fit-margin-bottom="0" fit-margin-left="0" fit-margin-right="0" fit-margin-top="0" gridtolerance="10" guidetolerance="10" id="namedview3338" inkscape:current-layer="svg3336" inkscape:cx="306.81377" inkscape:cy="330.4927" inkscape:pageopacity="0" inkscape:pageshadow="2" inkscape:window-height="1151" inkscape:window-maximized="1" inkscape:window-width="1920" inkscape:window-x="0" inkscape:window-y="25" inkscape:zoom="0.95533032" objecttolerance="10" pagecolor="#ffffff" showgrid="false">
	</sodipodi:namedview>
<path id="path4186" inkscape:connector-curvature="0" sodipodi:nodetypes="assassa" class="st0" d="M211.7,412.4
	c-6.8-11.5-11-26.5-7.4-39.4C220,317.3,440.7,66.3,593.6,47.4c58.9-7.3,112.5,62.4,133.4,117.9c7.7,20.4,6.9,49.3-8.3,64.9
	c-79.2,81-187.3,272.5-365.6,297.5C299.8,535.2,242.8,464.7,211.7,412.4L211.7,412.4z"/>
<path id="path4207" inkscape:connector-curvature="0" inkscape:original-d="M 228.37257,432.42345 C 191.22591,431.46313 106.44436,517.2504 91.53747,541.48108 59.389372,593.73679 64.28563,661.64627 0,666.15295" inkscape:path-effect="#path-effect4209" sodipodi:nodetypes="csc" class="st1" d="
	M228.4,432.4c-1.5-3-3.6-5.8-6.1-8.4c-10.2,1.8-21.7,7.6-33,14.9c-13.7,8.9-28.4,20.9-42.1,33.5c-13.8,12.6-26.8,26-37.3,37.8
	c-5.2,5.9-9.9,11.5-13.6,16.3c-3.7,4.9-6.7,9.2-8.6,12.5c-15.6,26.7-22.2,58.3-31.9,81.7c-5,12-11,22.5-19.6,30.5
	c-8.6,7.9-20.1,13.4-36.2,14.9c16.1-0.8,28.1-5.5,37.6-13.2s16.4-18.3,22.2-30.3c12-24.8,18.8-53.2,35.5-78.8
	c1.9-2.7,4.8-6.3,8.7-10.8c3.9-4.5,8.6-9.6,14-15.1c10.8-11,24-23.6,38-35.3c14-11.8,28.4-22.6,41.5-30.2
	c11.1-6.5,20.4-10.2,27.2-10.9C225.6,438.4,226.8,435.3,228.4,432.4z"/>
<path id="path4207-6" inkscape:connector-curvature="0" inkscape:original-d="M 248.57893,462.99529 C 195.18191,475.22808 192.90825,561.23746 137.37714,581.73124 94.55355,597.53529 78.281819,683.59993 15.948782,687.96973" inkscape:path-effect="#path-effect4209-3" sodipodi:nodetypes="csc" class="st1" d="
	M248.6,463c-1.8-3-3.7-6-5.9-8.8c-14.2,4.5-24.6,13.5-33,23.9c-8.9,11.1-16,24.7-22.6,37.5c-6.8,13.1-13.3,25.8-21.4,36.7
	c-8,10.8-17.5,19.6-30.1,24.7c-11.8,4.8-21.2,14.3-29.5,25c-8.3,10.8-16.1,23.6-24.2,35.7c-8.2,12.2-17,24-27.5,33.1
	S31.5,686.5,16,688c15.6-0.7,28.6-6.5,40.1-15.2c11.4-8.7,21-20.3,30-32.1c9-11.9,17.3-23.9,26-33.8c8.8-10,17.5-17.2,27.1-20.3
	c15.2-5.2,26.8-14.8,36.5-26.3c9.6-11.4,17.4-24.8,24.8-37.2c7.6-12.8,14.6-24.3,22.8-33.4c7.5-8.2,15.5-13.7,25.1-16.1
	C248.2,470,248.3,466.5,248.6,463L248.6,463z"/>
<path id="path4207-6-5" inkscape:connector-curvature="0" inkscape:original-d="m 269.08689,484.42302 c -10.15037,72.07996 -69.76221,117.51137 -108.02432,118.03297 -57.75281,0.7873 -59.09532,101.86869 -121.42835,106.23849" inkscape:path-effect="#path-effect4209-3-7" sodipodi:nodetypes="csc" class="st1" d="
	M269.1,484.4c-2.9,0.5-5.7,1-8.6,1.4c-4.6,33-20.1,60.4-39.2,80c-19.7,20.2-42.6,31.6-60.2,32.5c-7.9,0.3-14.7,2.3-20.8,5.5
	s-11.3,7.7-16,12.8c-9.2,10.2-16.6,23.5-24,36.6s-14.8,26.2-24.2,36.5c-9.4,10.2-20.9,17.6-36.4,19.1c15.6-0.7,27.7-7.6,37.9-17.6
	s18.4-23,26.3-35.8c8-12.9,15.7-25.2,24.9-34.4c4.6-4.5,9.4-8.1,14.7-10.6s11.1-3.8,17.7-3.7c20.6,0.4,46.6-11.2,68.9-31.9
	c21.7-20.2,40.3-49.7,46.9-86.3C274.3,487.1,271.7,485.7,269.1,484.4L269.1,484.4z"/>
<path id="path4189" inkscape:connector-curvature="0" inkscape:original-d="m 220.31665,346.21993 c 1.41086,-17.74809 -23.36947,-53.21666 -22.5579,-72.69445" inkscape:path-effect="#path-effect4191" sodipodi:nodetypes="cc" class="st1" d="
	M220.3,346.2c2.4-1.2,4.6-3,6.6-5.1c-1.1-5-3.3-10.4-5.8-15.6c-2.5-5.3-5.5-10.9-8.5-16.4c-3.5-6.5-7-13-9.7-19s-4.7-11.7-5.1-16.5
	c-0.8,4.9,0,11,1.7,17.7c1.6,6.6,4.1,13.8,6.5,20.8c2,5.9,4,11.8,5.5,17.1c1.5,5.4,2.3,10,2.1,13.5
	C215.8,343.5,218.2,344.7,220.3,346.2L220.3,346.2z"/>
<path id="path4193" inkscape:connector-curvature="0" inkscape:original-d="m 258.31931,296.06798 c -12.47922,-21.93063 9.02092,-37.37823 2.22051,-60.69394" inkscape:path-effect="#path-effect4195" sodipodi:nodetypes="cc" class="st1" d="
	M258.3,296.1c1-2.3,2.2-4.4,3.7-6.2c-1.9-3.5-2.8-7-2.9-10.7c-0.2-3.8,0.4-7.7,1.3-12c1-4.8,2.2-10,2.5-15.3
	c0.4-5.4-0.1-10.8-2.3-16.5c1.2,6,0.5,11.2-0.8,16c-1.4,4.8-3.5,9.3-5.5,13.9c-1.7,4-3.5,8.4-4.4,13.2c-0.9,4.8-0.9,10.1,1,15.9
	C253.3,295.2,255.8,295.7,258.3,296.1L258.3,296.1z"/>
<path id="path4201" inkscape:connector-curvature="0" inkscape:original-d="M 297.54832,245.73642 C 292.9212,225.19601 275.89428,223.64154 256.83897,219.83047" inkscape:path-effect="#path-effect4203" sodipodi:nodetypes="cc" class="st1" d="
	M297.5,245.7c2.6-0.7,5.1-1.5,7.6-2.2c-2.1-5.9-5.1-10.5-8.8-13.9c-3.7-3.4-7.8-5.4-12.1-6.7c-8.2-2.5-18.1-2.5-27.5-3.1
	c9.5,3.3,18,5.8,24,10.3c2.9,2.1,5,4.5,6.3,7.1s2.2,5.8,2.5,9.9C292.3,246.7,294.9,246.2,297.5,245.7L297.5,245.7z"/>
<path id="path4205" inkscape:connector-curvature="0" inkscape:original-d="M 324.9346,214.64928 C 311.97148,202.38831 307.74661,189.53093 311.61154,170.97926" inkscape:path-effect="#path-effect4207" sodipodi:nodetypes="cc" class="st1" d="
	M329.5,209.8c-6.6-4.7-11.4-9.6-14.4-15.6c-3.1-6.1-4.4-13.6-3.5-23.2c-3,9-4.1,17.1-2.8,25.2c1.4,8.1,5.2,15.8,11.6,23.3
	L329.5,209.8z"/>
<path id="path4209" inkscape:connector-curvature="0" inkscape:original-d="m 369.3448,176.90062 c -4.32453,-20.9803 -18.96606,-20.52106 -38.48884,-24.42561" inkscape:path-effect="#path-effect4211" sodipodi:nodetypes="cc" class="st1" d="
	M369.3,176.9c1.9-0.5,3.9-1.1,5.8-1.7c-1.7-5.7-4.2-10.1-7.4-13.4c-3.2-3.3-6.8-5.2-10.7-6.4c-7.3-2.2-16.7-2.1-26.2-3
	c9.8,3,17.9,4.8,23.7,8.6c2.7,1.8,4.7,3.9,6.1,6.4c1.3,2.5,2.3,5.8,2.8,10.3C365.4,177.5,367.3,177.2,369.3,176.9L369.3,176.9z"/>
<path id="path4213" inkscape:connector-curvature="0" inkscape:original-d="m 424.11737,133.23059 c -13.70333,-14.36735 -11.72023,-26.3959 -7.40169,-43.67002" inkscape:path-effect="#path-effect4215" sodipodi:nodetypes="cc" class="st1" d="
	M424.1,133.2c1.3-1.7,2.7-3.4,4-5c-6.3-5.3-9.7-10.2-11.3-16c-1.7-6.3-1.3-13.5-0.2-22.6c-3.1,8.2-6,15.7-6.3,23.2
	c-0.3,7.7,1.9,15.5,8.3,24C420.6,135.7,422.4,134.5,424.1,133.2z"/>
<path id="path4217" inkscape:connector-curvature="0" inkscape:original-d="m 475.92927,94.00159 c -3.85988,-14.62813 0.16755,-28.64536 3.70085,-42.18969" inkscape:path-effect="#path-effect4219" sodipodi:nodetypes="cc" class="st1" d="
	M475.9,94c1.6-0.5,3.3-1,4.9-1.5c-2.5-6.3-3.4-12.8-3.3-19.7c0.1-7,1.1-13.9,2.1-20.9c-2.6,6.4-5.3,13.2-7.2,20.2
	c-1.8,7-2.8,14.7-1.6,23C472.6,94.7,474.2,94.4,475.9,94L475.9,94z"/>
<path id="path4225" inkscape:connector-curvature="0" inkscape:original-d="M 553.64711,56.25292 C 541.17495,44.78679 532.30772,37.85124 517.37879,33.30765" inkscape:path-effect="#path-effect4227" sodipodi:nodetypes="cc" class="st1" d="
	M559.1,50.3c-7.3-4.8-13.8-8.7-20.5-11.5s-13.4-4.5-21.3-5.5c7.1,3.6,12.2,7.6,16.8,12.3c4.5,4.6,8.8,10.1,14,16.7L559.1,50.3z"/>
<path id="path4229" inkscape:connector-curvature="0" inkscape:original-d="M 609.90003,45.15037 C 605.68837,26.07895 598.10732,13.32918 583.99408,0" inkscape:path-effect="#path-effect4231" sodipodi:nodetypes="cc" class="st1" d="
	M617.7,43.4c-3.6-9.9-8-18-13.6-25S591.9,5.6,584,0c6.2,7.7,10.4,14.9,13.2,22.4s4.2,15.3,4.9,24.5L617.7,43.4z"/>
<path id="path4233" inkscape:connector-curvature="0" inkscape:original-d="m 640.24699,59.2136 c 10.0905,-21.26625 17.10045,-31.09671 40.70935,-34.04782" inkscape:path-effect="#path-effect4235" sodipodi:nodetypes="cc" class="st1" d="
	M640.2,59.2c3,0.8,6,1.5,9,2.3c3.2-10.1,5.7-17.4,9.5-22.8c2-2.9,4.6-5.6,8.2-7.9c3.6-2.3,8.2-4.2,14-5.7c-6,0-11.1,0.4-15.8,1.4
	s-8.9,2.7-12.8,5.3c-7.5,4.9-13.4,12.3-19.6,21.8C635.3,55.5,637.8,57.4,640.2,59.2z"/>
<path id="path4237" inkscape:connector-curvature="0" inkscape:original-d="M 676.8854,88.820399 C 699.33913,92.078409 703.93968,70.24 710.56314,56.99309" inkscape:path-effect="#path-effect4239" sodipodi:nodetypes="cc" class="st1" d="
	M676.9,88.8c1.5,2.3,3.3,4.5,5.4,6.5c5.2-0.6,9.3-2.5,12.7-5.2c3.3-2.6,5.7-5.8,7.5-9.1c4.1-7.6,6-17.4,8.1-24.1
	c-4.6,6.5-8.1,14.3-13.7,20.1c-2.2,2.3-4.5,3.9-7,4.9c-2.4,0.9-5,1.2-8.1,0.9C680.7,85,679,87,676.9,88.8L676.9,88.8z"/>
<path id="path4241" inkscape:connector-curvature="0" inkscape:original-d="m 697.89045,108.06481 c 17.81806,-6.45182 27.94392,-4.68172 45.89054,0" inkscape:path-effect="#path-effect4243" sodipodi:nodetypes="cc" class="st1" d="
	M700.3,114.8c7.8-4.1,13.9-6.4,20.4-7.3c6.7-1,13.7-0.6,23.1,0.6c-8.6-3.4-15.5-6.3-22.9-7.7c-7.5-1.4-15.4-1.3-25.4,1L700.3,114.8z
	"/>
<path id="path4245" inkscape:connector-curvature="0" inkscape:original-d="m 720.92552,148.77416 c 20.8327,-1.70651 44.0062,-13.39029 62.17427,-17.02391" inkscape:path-effect="#path-effect4247" sodipodi:nodetypes="cc" class="st1" d="
	M721.6,156.9c11.3-2.3,22.6-7.3,32.7-12c10.2-4.9,20.1-10,28.8-13.1c-9.4,0.5-20.3,3.1-31.4,5.4c-11.2,2.3-21.9,4.2-31.5,3.5
	L721.6,156.9z"/>
<path id="path4249" inkscape:connector-curvature="0" inkscape:original-d="m 731.3251,190.96385 c 21.85883,-5.27105 31.10438,-0.57834 46.6307,11.84272" inkscape:path-effect="#path-effect4251" sodipodi:nodetypes="cc" class="st1" d="
	M733.1,198.3c9.7-3.6,16.5-5,22.9-4.4c6.7,0.7,13.3,3.6,22,9c-6.8-7-12.6-12.7-19.9-16.2c-7.6-3.6-16.5-4.6-28.5-3L733.1,198.3z"/>
<path id="path4253" inkscape:connector-curvature="0" inkscape:original-d="m 713.52382,236.85438 c 8.01126,13.80397 15.60737,13.3337 28.86663,15.54357" inkscape:path-effect="#path-effect4255" sodipodi:nodetypes="cc" class="st1" d="
	M713.5,236.9c-2.1,1.4-4.2,2.7-6.3,4.1c2.8,3.5,5.6,6.2,8.6,8c3,1.9,5.9,3,8.8,3.5c5.4,1,11.5,0.1,17.8-0.1c-6.6-2.4-11.4-4-15-6.9
	c-1.6-1.3-2.9-2.9-3.9-4.7c-1.1-1.8-2.2-4.2-3.3-7.4C718,234.5,715.7,235.7,713.5,236.9L713.5,236.9z"/>
<path id="path4257" inkscape:connector-curvature="0" inkscape:original-d="m 682.80676,272.75263 c 22.54163,6.42391 33.68932,16.56627 45.52046,35.15807" inkscape:path-effect="#path-effect4259" sodipodi:nodetypes="cc" class="st1" d="
	M681.2,278.4c10.9,2.1,19.3,5.1,26.6,9.6c7.4,4.6,13.8,11,20.6,19.8c-5.1-9.8-10.1-17.8-16.9-24.4c-6.9-6.8-15.4-12.1-27-16.4
	L681.2,278.4z"/>
<path id="path4261" inkscape:connector-curvature="0" inkscape:original-d="m 649.8692,311.61155 c 7.04437,14.85325 13.73427,17.7865 25.90595,24.4256" inkscape:path-effect="#path-effect4263" sodipodi:nodetypes="cc" class="st1" d="
	M649.9,311.6c-1.2,1.4-2.3,2.8-3.5,4.2c4.2,6.4,8.3,10.3,12.8,13c4.8,2.9,10.2,4.6,16.6,7.1c-5.8-4.2-9.9-7.2-13.2-11.1
	c-2.9-3.4-5.1-7.5-7.3-13.6C653.5,311.5,651.7,311.6,649.9,311.6L649.9,311.6z"/>
<path id="path4265" inkscape:connector-curvature="0" inkscape:original-d="m 621.74275,347.1397 c 17.02207,16.92864 16.56267,33.75899 35.51274,48.40223" inkscape:path-effect="#path-effect4267" sodipodi:nodetypes="cc" class="st1" d="
	M617.2,351.7c8.6,7,13.2,14.1,18.7,22s11,15.3,21.3,21.8c-8.8-8.1-12.3-16.4-15.7-24.9c-3.3-8.4-6.8-18.1-15.3-28.1L617.2,351.7z"/>
<path id="path4269" inkscape:connector-curvature="0" inkscape:original-d="m 587.69493,386.36871 c 12.75282,6.50856 23.1146,15.7129 33.30765,25.90595" inkscape:path-effect="#path-effect4271" sodipodi:nodetypes="cc" class="st1" d="
	M584.7,392.2c13,4.2,24.3,11.3,36.3,20.1c-8.5-11.5-17.8-22.9-30.4-31.7L584.7,392.2z"/>
<path id="path4273" inkscape:connector-curvature="0" inkscape:original-d="m 558.08813,415.97551 c 12.93011,13.95344 20.41332,32.15222 31.82731,47.37087" inkscape:path-effect="#path-effect4275" sodipodi:nodetypes="cc" class="st1" d="
	M553.4,420.3c6.8,5.8,12.6,12.8,18.4,20.5c5.8,7.6,11.5,15.5,18.1,22.5c-4.8-8.2-8.6-17.1-12.6-25.8c-4-8.7-8.4-17.7-14.5-25.9
	L553.4,420.3z"/>
<path id="path4277" inkscape:connector-curvature="0" inkscape:original-d="m 519.5993,453.72417 c 8.0695,9.09443 17.27235,12.38836 27.38628,17.02391" inkscape:path-effect="#path-effect4279" sodipodi:nodetypes="cc" class="st1" d="
	M515.8,457.1c5.1,4.5,10.4,7.1,15.5,9s10.4,3.1,15.7,4.6c-4.8-3.1-9.2-5.8-13.2-9.1c-4-3.2-7.4-6.7-10.3-11.3L515.8,457.1z"/>
<path id="path4281" inkscape:connector-curvature="0" inkscape:original-d="m 493.69335,467.7874 c 19.35887,10.63336 23.44987,29.61484 26.64611,49.59139" inkscape:path-effect="#path-effect4283" sodipodi:nodetypes="cc" class="st1" d="
	M490.1,474.4c8.7,3.4,14.8,8.7,19.6,16.3c4.8,7.7,7.8,16.8,10.7,26.7c-0.4-10-0.9-20.4-3.8-29.9c-3-9.7-8.5-19-19.2-26.3
	L490.1,474.4z"/>
<path id="path4285" inkscape:connector-curvature="0" inkscape:original-d="m 447.80281,498.87454 c 10.08848,13.30757 21.23177,15.95929 35.52816,20.72476" inkscape:path-effect="#path-effect4287" sodipodi:nodetypes="cc" class="st1" d="
	M442.4,503c6.6,6.8,13.3,10.4,20.1,12.5c6.5,2,13.6,2.9,20.9,4.1c-6.9-3.5-12.7-6.3-17.8-10.2c-5-3.7-8.8-8.2-12.3-14.6L442.4,503z"
	/>
<path id="path4289" inkscape:connector-curvature="0" inkscape:original-d="m 410.05415,515.15828 c 10.04753,22.37069 28.38159,16.85417 33.15886,42.65144" inkscape:path-effect="#path-effect4291" sodipodi:nodetypes="cc" class="st1" d="
	M403.2,518.2c3.5,6.3,7.6,10.5,11.7,13.5c4,2.9,8.1,4.8,11.5,6.5s6.7,3.5,9.5,6.3c2.9,2.8,5.5,6.9,7.3,13.3
	c-0.6-6.6-2-11.4-4.3-15.5s-5.1-7.2-8.1-10.1c-3.1-3-5.7-5.4-8.1-8.6c-2.3-3-4.3-6.6-5.8-11.5L403.2,518.2z"/>
<path id="path4293" inkscape:connector-curvature="0" inkscape:original-d="m 376.00633,523.30015 c 14.69733,15.60407 10.8674,25.81345 12.58289,34.04781" inkscape:path-effect="#path-effect4295" sodipodi:nodetypes="cc" class="st1" d="
	M369.9,529c7.3,5.8,10.9,10.5,13.1,14.9c1.5,2.9,4.2,11.1,5.5,13.5c0.5-4.1,2.5-8.8,2.7-15.1c0.1-6.6-1.9-14.9-9.2-24.7L369.9,529z"
	/>
<path id="path4297" inkscape:connector-curvature="0" inkscape:original-d="m 325.67477,528.48134 c -2.0163,15.51039 -15.32104,32.84808 -21.46493,41.44951" inkscape:path-effect="#path-effect4299" sodipodi:nodetypes="cc" class="st1" d="
	M319.1,527.6c0.3,6.6-2.1,14.6-5.5,22.5c-3.5,8.2-7,14.4-9.4,19.8c3.9-3.6,9.7-9.5,15.1-16.4c5.3-6.8,10.7-15.3,12.9-24.2
	L319.1,527.6z"/>
<path id="path4301" inkscape:connector-curvature="0" inkscape:original-d="m 207.24758,401.17211 c -18.12887,-5.80991 -30.30811,4.89688 -44.41019,14.06323" inkscape:path-effect="#path-effect4303" sodipodi:nodetypes="cc" class="st1" d="
	M207.2,401.2c0.2-2.3,0.3-4.7,0.4-7c-10.5-1.7-18.8,1-25.5,5.2c-6.9,4.2-13.1,10.5-19.3,15.9c7.9-3.7,14.9-7.6,22.1-9.4
	c6.7-1.7,12.6-1.4,19,1.5C205,405.3,206.1,403.2,207.2,401.2z"/>
<path id="path4305" inkscape:connector-curvature="0" inkscape:original-d="m 207.98775,362.68327 c -19.61907,4.78402 -39.63111,-5.14204 -56.99308,-12.58289" inkscape:path-effect="#path-effect4307" sodipodi:nodetypes="cc" class="st1" d="
	M206.6,356.9c-8.3,3-17.3,3-27.1,1.2c-9.7-1.8-19.3-5.2-28.5-8c8.2,4.6,17.3,9.9,26.8,13.7c9.5,3.8,20.2,6.4,31.6,4.6L206.6,356.9z"
	/>
</svg>
