<?xml version="1.0" encoding="utf-8"?>
<!-- Generator: Adobe Illustrator 23.0.3, SVG Export Plug-In . SVG Version: 6.00 Build 0)  -->
<svg version="1.1"
	 id="svg3336" xmlns:cc="http://creativecommons.org/ns#" xmlns:dc="http://purl.org/dc/elements/1.1/" xmlns:inkscape="http://www.inkscape.org/namespaces/inkscape" xmlns:rdf="http://www.w3.org/1999/02/22-rdf-syntax-ns#" xmlns:sodipodi="http://sodipodi.sourceforge.net/DTD/sodipodi-0.dtd" xmlns:svg="http://www.w3.org/2000/svg"
	 xmlns="http://www.w3.org/2000/svg" xmlns:xlink="http://www.w3.org/1999/xlink" x="0px" y="0px" viewBox="0 0 783.1 708.7"
	 style="enable-background:new 0 0 783.1 708.7;" xml:space="preserve">
<style type="text/css">
	.st0{fill:#810E15;}
	.st1{fill:#330080;stroke:#000000;stroke-width:6;}
</style>
<defs>
	
	
		<inkscape:path-effect  cusp_linecap_type="round" effect="powerstroke" end_linecap_type="zerowidth" id="path-effect4307" interpolator_beta="0.2" interpolator_type="Linear" is_visible="true" linejoin_type="round" miter_limit="4" offset_points="0,3" sort_points="true" start_linecap_type="zerowidth">
		</inkscape:path-effect>
	
		<inkscape:path-effect  cusp_linecap_type="round" effect="powerstroke" end_linecap_type="zerowidth" id="path-effect4303" interpolator_beta="0.2" interpolator_type="Linear" is_visible="true" linejoin_type="round" miter_limit="4" offset_points="0,3" sort_points="true" start_linecap_type="zerowidth">
		</inkscape:path-effect>
	
		<inkscape:path-effect  cusp_linecap_type="round" effect="powerstroke" end_linecap_type="zerowidth" id="path-effect4299" interpolator_beta="0.2" interpolator_type="Linear" is_visible="true" linejoin_type="round" miter_limit="4" offset_points="0,3" sort_points="true" start_linecap_type="zerowidth">
		</inkscape:path-effect>
	
		<inkscape:path-effect  cusp_linecap_type="round" effect="powerstroke" end_linecap_type="zerowidth" id="path-effect4295" interpolator_beta="0.2" interpolator_type="Linear" is_visible="true" linejoin_type="round" miter_limit="4" offset_points="0,3" sort_points="true" start_linecap_type="zerowidth">
		</inkscape:path-effect>
	
		<inkscape:path-effect  cusp_linecap_type="round" effect="powerstroke" end_linecap_type="zerowidth" id="path-effect4291" interpolator_beta="0.2" interpolator_type="Linear" is_visible="true" linejoin_type="round" miter_limit="4" offset_points="0,3" sort_points="true" start_linecap_type="zerowidth">
		</inkscape:path-effect>
	
		<inkscape:path-effect  cusp_linecap_type="round" effect="powerstroke" end_linecap_type="zerowidth" id="path-effect4287" interpolator_beta="0.2" interpolator_type="Linear" is_visible="true" linejoin_type="round" miter_limit="4" offset_points="0,3" sort_points="true" start_linecap_type="zerowidth">
		</inkscape:path-effect>
	
		<inkscape:path-effect  cusp_linecap_type="round" effect="powerstroke" end_linecap_type="zerowidth" id="path-effect4283" interpolator_beta="0.2" interpolator_type="Linear" is_visible="true" linejoin_type="round" miter_limit="4" offset_points="0,3" sort_points="true" start_linecap_type="zerowidth">
		</inkscape:path-effect>
	
		<inkscape:path-effect  cusp_linecap_type="round" effect="powerstroke" end_linecap_type="zerowidth" id="path-effect4279" interpolator_beta="0.2" interpolator_type="Linear" is_visible="true" linejoin_type="round" miter_limit="4" offset_points="0,3" sort_points="true" start_linecap_type="zerowidth">
		</inkscape:path-effect>
	
		<inkscape:path-effect  cusp_linecap_type="round" effect="powerstroke" end_linecap_type="zerowidth" id="path-effect4275" interpolator_beta="0.2" interpolator_type="Linear" is_visible="true" linejoin_type="round" miter_limit="4" offset_points="0,3" sort_points="true" start_linecap_type="zerowidth">
		</inkscape:path-effect>
	
		<inkscape:path-effect  cusp_linecap_type="round" effect="powerstroke" end_linecap_type="zerowidth" id="path-effect4271" interpolator_beta="0.2" interpolator_type="Linear" is_visible="true" linejoin_type="round" miter_limit="4" offset_points="0,3" sort_points="true" start_linecap_type="zerowidth">
		</inkscape:path-effect>
	
		<inkscape:path-effect  cusp_linecap_type="round" effect="powerstroke" end_linecap_type="zerowidth" id="path-effect4267" interpolator_beta="0.2" interpolator_type="Linear" is_visible="true" linejoin_type="round" miter_limit="4" offset_points="0,3" sort_points="true" start_linecap_type="zerowidth">
		</inkscape:path-effect>
	
		<inkscape:path-effect  cusp_linecap_type="round" effect="powerstroke" end_linecap_type="zerowidth" id="path-effect4263" interpolator_beta="0.2" interpolator_type="Linear" is_visible="true" linejoin_type="round" miter_limit="4" offset_points="0,3" sort_points="true" start_linecap_type="zerowidth">
		</inkscape:path-effect>
	
		<inkscape:path-effect  cusp_linecap_type="round" effect="powerstroke" end_linecap_type="zerowidth" id="path-effect4259" interpolator_beta="0.2" interpolator_type="Linear" is_visible="true" linejoin_type="round" miter_limit="4" offset_points="0,3" sort_points="true" start_linecap_type="zerowidth">
		</inkscape:path-effect>
	
		<inkscape:path-effect  cusp_linecap_type="round" effect="powerstroke" end_linecap_type="zerowidth" id="path-effect4255" interpolator_beta="0.2" interpolator_type="Linear" is_visible="true" linejoin_type="round" miter_limit="4" offset_points="0,3" sort_points="true" start_linecap_type="zerowidth">
		</inkscape:path-effect>
	
		<inkscape:path-effect  cusp_linecap_type="round" effect="powerstroke" end_linecap_type="zerowidth" id="path-effect4251" interpolator_beta="0.2" interpolator_type="Linear" is_visible="true" linejoin_type="round" miter_limit="4" offset_points="0,3" sort_points="true" start_linecap_type="zerowidth">
		</inkscape:path-effect>
	
		<inkscape:path-effect  cusp_linecap_type="round" effect="powerstroke" end_linecap_type="zerowidth" id="path-effect4247" interpolator_beta="0.2" interpolator_type="Linear" is_visible="true" linejoin_type="round" miter_limit="4" offset_points="0,3" sort_points="true" start_linecap_type="zerowidth">
		</inkscape:path-effect>
	
		<inkscape:path-effect  cusp_linecap_type="round" effect="powerstroke" end_linecap_type="zerowidth" id="path-effect4243" interpolator_beta="0.2" interpolator_type="Linear" is_visible="true" linejoin_type="round" miter_limit="4" offset_points="0,3" sort_points="true" start_linecap_type="zerowidth">
		</inkscape:path-effect>
	
		<inkscape:path-effect  cusp_linecap_type="round" effect="powerstroke" end_linecap_type="zerowidth" id="path-effect4239" interpolator_beta="0.2" interpolator_type="Linear" is_visible="true" linejoin_type="round" miter_limit="4" offset_points="0,3" sort_points="true" start_linecap_type="zerowidth">
		</inkscape:path-effect>
	
		<inkscape:path-effect  cusp_linecap_type="round" effect="powerstroke" end_linecap_type="zerowidth" id="path-effect4235" interpolator_beta="0.2" interpolator_type="Linear" is_visible="true" linejoin_type="round" miter_limit="4" offset_points="0,3" sort_points="true" start_linecap_type="zerowidth">
		</inkscape:path-effect>
	
		<inkscape:path-effect  cusp_linecap_type="round" effect="powerstroke" end_linecap_type="zerowidth" id="path-effect4231" interpolator_beta="0.2" interpolator_type="Linear" is_visible="true" linejoin_type="round" miter_limit="4" offset_points="0,3" sort_points="true" start_linecap_type="zerowidth">
		</inkscape:path-effect>
	
		<inkscape:path-effect  cusp_linecap_type="round" effect="powerstroke" end_linecap_type="zerowidth" id="path-effect4227" interpolator_beta="0.2" interpolator_type="Linear" is_visible="true" linejoin_type="round" miter_limit="4" offset_points="0,3" sort_points="true" start_linecap_type="zerowidth">
		</inkscape:path-effect>
	
		<inkscape:path-effect  cusp_linecap_type="round" effect="powerstroke" end_linecap_type="zerowidth" id="path-effect4219" interpolator_beta="0.2" interpolator_type="Linear" is_visible="true" linejoin_type="round" miter_limit="4" offset_points="0,3" sort_points="true" start_linecap_type="zerowidth">
		</inkscape:path-effect>
	
		<inkscape:path-effect  cusp_linecap_type="round" effect="powerstroke" end_linecap_type="zerowidth" id="path-effect4215" interpolator_beta="0.2" interpolator_type="Linear" is_visible="true" linejoin_type="round" miter_limit="4" offset_points="0,3" sort_points="true" start_linecap_type="zerowidth">
		</inkscape:path-effect>
	
		<inkscape:path-effect  cusp_linecap_type="round" effect="powerstroke" end_linecap_type="zerowidth" id="path-effect4211" interpolator_beta="0.2" interpolator_type="Linear" is_visible="true" linejoin_type="round" miter_limit="4" offset_points="0,3" sort_points="true" start_linecap_type="zerowidth">
		</inkscape:path-effect>
	
		<inkscape:path-effect  cusp_linecap_type="round" effect="powerstroke" end_linecap_type="zerowidth" id="path-effect4207" interpolator_beta="0.2" interpolator_type="Linear" is_visible="true" linejoin_type="round" miter_limit="4" offset_points="0,3" sort_points="true" start_linecap_type="zerowidth">
		</inkscape:path-effect>
	
		<inkscape:path-effect  cusp_linecap_type="round" effect="powerstroke" end_linecap_type="zerowidth" id="path-effect4203" interpolator_beta="0.2" interpolator_type="Linear" is_visible="true" linejoin_type="round" miter_limit="4" offset_points="0,3" sort_points="true" start_linecap_type="zerowidth">
		</inkscape:path-effect>
	
		<inkscape:path-effect  cusp_linecap_type="round" effect="powerstroke" end_linecap_type="zerowidth" id="path-effect4195" interpolator_beta="0.2" interpolator_type="Linear" is_visible="true" linejoin_type="round" miter_limit="4" offset_points="0,3" sort_points="true" start_linecap_type="zerowidth">
		</inkscape:path-effect>
	
		<inkscape:path-effect  cusp_linecap_type="round" effect="powerstroke" end_linecap_type="zerowidth" id="path-effect4191" interpolator_beta="0.2" interpolator_type="Linear" is_visible="true" linejoin_type="round" miter_limit="4" offset_points="0,3" sort_points="true" start_linecap_type="zerowidth">
		</inkscape:path-effect>
	
		<inkscape:path-effect  cusp_linecap_type="round" effect="powerstroke" end_linecap_type="zerowidth" id="path-effect4209" interpolator_beta="0.2" interpolator_type="Linear" is_visible="true" linejoin_type="round" miter_limit="4" offset_points="0.039536791,2.4489479" sort_points="true" start_linecap_type="zerowidth">
		</inkscape:path-effect>
	
		<inkscape:path-effect  cusp_linecap_type="round" effect="powerstroke" end_linecap_type="zerowidth" id="path-effect4166" interpolator_beta="0.2" interpolator_type="Linear" is_visible="true" linejoin_type="round" miter_limit="4" offset_points="0.31428378,1.323707" sort_points="true" start_linecap_type="zerowidth">
		</inkscape:path-effect>
	
		<inkscape:path-effect  cusp_linecap_type="round" effect="powerstroke" end_linecap_type="zerowidth" id="path-effect4162" interpolator_beta="0.2" interpolator_type="Linear" is_visible="true" linejoin_type="round" miter_limit="4" offset_points="0,3" sort_points="true" start_linecap_type="zerowidth">
		</inkscape:path-effect>
	
		<inkscape:path-effect  cusp_linecap_type="round" effect="powerstroke" end_linecap_type="zerowidth" id="path-effect4158" interpolator_beta="0.2" interpolator_type="Linear" is_visible="true" linejoin_type="round" miter_limit="4" offset_points="0,3" sort_points="true" start_linecap_type="zerowidth">
		</inkscape:path-effect>
	
		<inkscape:path-effect  cusp_linecap_type="round" effect="powerstroke" end_linecap_type="zerowidth" id="path-effect4166-3" interpolator_beta="0.2" interpolator_type="Linear" is_visible="true" linejoin_type="round" miter_limit="4" offset_points="0.31428378,1.323707" sort_points="true" start_linecap_type="zerowidth">
		</inkscape:path-effect>
	
		<inkscape:path-effect  cusp_linecap_type="round" effect="powerstroke" end_linecap_type="zerowidth" id="path-effect4209-3" interpolator_beta="0.2" interpolator_type="Linear" is_visible="true" linejoin_type="round" miter_limit="4" offset_points="0,3" sort_points="true" start_linecap_type="zerowidth">
		</inkscape:path-effect>
	
		<inkscape:path-effect  cusp_linecap_type="round" effect="powerstroke" end_linecap_type="zerowidth" id="path-effect4209-3-7" interpolator_beta="0.2" interpolator_type="Linear" is_visible="true" linejoin_type="round" miter_limit="4" offset_points="0,3" sort_points="true" start_linecap_type="zerowidth">
		</inkscape:path-effect>
</defs>
<sodipodi:namedview  bordercolor="#666666" borderopacity="1" fit-margin-bottom="0" fit-margin-left="0" fit-margin-right="0" fit-margin-top="0" gridtolerance="10" guidetolerance="10" id="namedview3338" inkscape:current-layer="svg3336" inkscape:cx="297.96956" inkscape:cy="674.25387" inkscape:pageopacity="0" inkscape:pageshadow="2" inkscape:window-height="1176" inkscape:window-maximized="1" inkscape:window-width="1920" inkscape:window-x="1920" inkscape:window-y="0" inkscape:zoom="0.67552055" objecttolerance="10" pagecolor="#ffffff" showgrid="false">
	</sodipodi:namedview>
<path id="path4152" inkscape:connector-curvature="0" class="st0" d="M644.6,309.5l-135-126.7"/>
<path id="path4186" inkscape:connector-curvature="0" sodipodi:nodetypes="assassa" class="st1" d="M211.7,412.4
	c-6.8-11.5-11-26.5-7.4-39.4C220,317.3,440.7,66.3,593.6,47.4c58.9-7.3,112.5,62.4,133.4,117.9c7.7,20.4,6.9,49.3-8.3,64.9
	c-79.2,81-187.3,272.5-365.6,297.5C299.8,535.2,242.8,464.7,211.7,412.4L211.7,412.4z"/>
<path id="path4207" inkscape:connector-curvature="0" inkscape:original-d="M 229.19869,437.08896 C 192.05203,436.12864 106.44436,517.2504 91.53747,541.48108 59.389372,593.73679 64.28563,661.64627 0,666.15295" inkscape:path-effect="#path-effect4209" sodipodi:nodetypes="csc" d="
	M229.2,437.1c-1.5-0.9-3.1-1.6-4.9-2.2c-9.1,1.3-19.9,6.1-31.2,12.8c-13.6,8-28.3,19-42.2,30.7s-27.2,24.2-37.8,35.3
	c-10.7,11.1-18.8,20.8-22.5,27.1c-15.9,26.3-22.7,56.8-33.2,80.6c-10.6,24-25.2,42.2-57.3,44.7c32.2-2,47.3-20,58.4-44.2
	c11.2-24.3,18-53.9,34.2-79.8c3.7-5.9,11.9-15.3,22.6-26.2c10.7-10.9,24-23.2,38-34.6c14-11.5,28.6-22.1,42-29.8
	c11.3-6.5,21.6-10.7,29.7-11.7C226.3,438.8,227.7,437.9,229.2,437.1L229.2,437.1z"/>
<path id="path4207-6" inkscape:connector-curvature="0" inkscape:original-d="M 249.10231,466.65894 C 195.70529,478.89173 192.90825,561.23746 137.37714,581.73124 94.55355,597.53529 78.281819,683.59993 15.948782,687.96973" inkscape:path-effect="#path-effect4209-3" sodipodi:nodetypes="csc" d="
	M248.4,463.7c-14.1,3.4-24.7,11.3-33.5,21.4c-8.7,10-15.8,22.5-22.9,34.8c-7.1,12.4-14.1,24.9-22.8,35.7
	c-8.7,10.7-18.9,19.6-32.4,24.7c-11,4.2-20.2,12.9-28.6,23.3c-8.5,10.5-16.4,23-24.9,35C66.4,662.8,47,685.5,15.9,688
	c31.3-1.9,51.2-24.4,68.6-48.4c8.7-12,16.8-24.3,25.4-34.5s17.5-18.3,27.9-22c14.3-5.1,25.2-14.2,34.3-25.1
	c9.1-10.9,16.5-23.6,23.8-35.8c7.3-12.3,14.4-24.1,22.9-33.6c8.5-9.4,18.2-16.3,30.9-19.1L248.4,463.7z"/>
<path id="path4207-6-5" inkscape:connector-curvature="0" inkscape:original-d="m 269.08689,484.42302 c -10.15037,72.07996 -69.76221,117.51137 -108.02432,118.03297 -57.75281,0.7873 -59.09532,101.86869 -121.42835,106.23849" inkscape:path-effect="#path-effect4209-3-7" sodipodi:nodetypes="csc" d="
	M266.1,484c-4.7,35.4-21.6,64.3-42.1,84.7c-20.5,20.3-44.4,31.8-63,32.3c-14.9,0.3-26.1,7.2-35.4,17c-9.2,9.8-16.7,22.9-24.3,35.9
	c-7.6,13-15.2,26.1-24.9,36.3c-9.6,10.1-21.3,17.4-36.9,18.6c15.6-1,27.5-8,37.4-18.1s17.9-23.1,25.7-36s15.4-25.6,24.6-35.1
	c9.2-9.4,19.8-15.5,33.8-15.6c19.7,0,44.7-11.5,66.1-32.1s39.4-50.3,44.9-87L266.1,484z"/>
<path id="path4189" inkscape:connector-curvature="0" inkscape:original-d="m 216.12962,349.36021 c 1.41086,-17.74809 -19.18244,-56.35694 -18.37087,-75.83473" inkscape:path-effect="#path-effect4191" sodipodi:nodetypes="cc" d="
	M219.1,349.6c0.2-5-1.2-11.1-3.2-17.4c-2-6.4-4.7-13.5-7.3-20.6c-5.3-14.1-10.7-28.4-10.8-38.1c-0.9,9.8,3.6,24.6,8,39
	c2.2,7.3,4.4,14.4,5.8,20.8c1.5,6.5,2.1,11.9,1.6,15.8L219.1,349.6z"/>
<path id="path4193" inkscape:connector-curvature="0" inkscape:original-d="m 258.31931,296.06798 c -12.47922,-21.93063 9.02092,-37.37823 2.22051,-60.69394" inkscape:path-effect="#path-effect4195" d="
	M260.9,294.6c-3.1-4.9-4.2-9.4-4.3-13.9c-0.1-4.6,0.9-9.1,2.1-14c2.5-9.8,5.7-19.7,1.8-31.3c2.9,11.7-1.3,21.1-4.7,30.4
	c-1.7,4.7-3.3,9.6-3.8,14.8c-0.4,5.3,0.4,10.9,3.6,17L260.9,294.6z"/>
<path id="path4201" inkscape:connector-curvature="0" inkscape:original-d="M 297.54832,245.73642 C 292.9212,225.19601 275.89428,223.64154 256.83897,219.83047" inkscape:path-effect="#path-effect4203" d="
	M300.5,245.1c-1.5-5.5-3.8-9.7-6.8-12.9s-6.5-5.4-10.4-7c-7.6-3.1-16.9-3.9-26.4-5.3c9.5,2.4,18.3,4.2,25.1,8
	c3.4,1.9,6.1,4.2,8.2,7.1c2.1,2.9,3.6,6.6,4.4,11.4L300.5,245.1z"/>
<path id="path4205" inkscape:connector-curvature="0" inkscape:original-d="M 324.9346,214.64928 C 311.97148,202.38831 307.74661,189.53093 311.61154,170.97926" inkscape:path-effect="#path-effect4207" d="
	M324.9,214.6l2.1-2.2c-6.5-5.5-11-11.2-13.6-17.7c-2.6-6.6-3.2-14.3-1.8-23.8c-2.4,9.1-2.9,17.1-1.1,24.6
	c1.8,7.6,5.9,14.4,12.3,21.2L324.9,214.6L324.9,214.6z"/>
<path id="path4209" inkscape:connector-curvature="0" inkscape:original-d="m 369.3448,176.90062 c -4.32453,-20.9803 -18.96606,-20.52106 -38.48884,-24.42561" inkscape:path-effect="#path-effect4211" d="
	M372.3,176.3c-1.4-5.5-3.5-9.7-6.3-12.9c-2.7-3.2-6-5.1-9.6-6.5c-7-2.6-15.9-3-25.6-4.4c9.8,2.5,18.1,3.8,24.3,7.2
	c3,1.6,5.5,3.7,7.3,6.5s3.2,6.4,3.9,11.4L372.3,176.3z"/>
<path id="path4213" inkscape:connector-curvature="0" inkscape:original-d="m 424.11737,133.23059 c -13.70333,-14.36735 -11.72023,-26.3959 -7.40169,-43.67002" inkscape:path-effect="#path-effect4215" d="
	M424.1,133.2l2.2-2.1c-6.8-6.4-10-12.3-11.1-18.8c-1.2-6.7-0.1-13.9,1.6-22.8c-2.6,8.4-4.8,15.8-4.6,23.1c0.2,7.4,2.9,14.7,9.8,22.7
	L424.1,133.2L424.1,133.2z"/>
<path id="path4217" inkscape:connector-curvature="0" inkscape:original-d="m 475.92927,94.00159 c -3.85988,-14.62813 0.16755,-28.64536 3.70085,-42.18969" inkscape:path-effect="#path-effect4219" d="
	M475.9,94l2.9-0.8c-2.3-6.7-2.8-13.5-2.3-20.5s1.8-13.9,3.1-20.9c-2.2,6.6-4.6,13.4-6.1,20.5s-2.1,14.6-0.5,22.5
	C473,94.8,475.9,94,475.9,94z"/>
<path id="path4225" inkscape:connector-curvature="0" inkscape:original-d="M 553.64711,56.25292 C 541.17495,44.78679 532.30772,37.85124 517.37879,33.30765" inkscape:path-effect="#path-effect4227" d="
	M553.6,56.3l2-2.2c-13.4-10.9-23-17.1-38.3-20.7c14.5,5.5,22.7,13.2,34.2,25.2C551.6,58.5,553.6,56.3,553.6,56.3z"/>
<path id="path4229" inkscape:connector-curvature="0" inkscape:original-d="M 609.90003,45.15037 C 605.68837,26.07895 598.10732,13.32918 583.99408,0" inkscape:path-effect="#path-effect4231" d="
	M609.9,45.2l2.9-0.6c-2.7-9.7-6.2-17.7-10.9-24.8s-10.6-13.4-18-19.7c6.7,7,11.7,13.8,15.4,21.2c3.7,7.3,6,15.2,7.6,24.6L609.9,45.2
	z"/>
<path id="path4233" inkscape:connector-curvature="0" inkscape:original-d="m 640.24699,59.2136 c 10.0905,-21.26625 17.10045,-31.09671 40.70935,-34.04782" inkscape:path-effect="#path-effect4235" d="
	M643,60.5c4.6-10.8,8.3-18.5,13.6-24.1c5.4-5.6,12.6-9.3,24.4-11.3c-11.8,1-19.9,3.7-26.4,9.1c-6.6,5.4-11.5,13.2-17,23.7L643,60.5z
	"/>
<path id="path4237" inkscape:connector-curvature="0" inkscape:original-d="M 674.29481,81.4187 C 696.74854,84.67671 703.93968,70.24 710.56314,56.99309" inkscape:path-effect="#path-effect4239" d="
	M673.9,84.4c12.1,1.2,20-2.3,25.5-7.9c5.3-5.4,8.4-12.8,11.2-19.5c-3.8,6.5-7.6,13-13.2,17.3c-5.4,4.2-12.3,6.2-22.6,4.2L673.9,84.4
	z"/>
<path id="path4241" inkscape:connector-curvature="0" inkscape:original-d="m 697.89045,108.06481 c 17.81806,-6.45182 27.94392,-4.68172 45.89054,0" inkscape:path-effect="#path-effect4243" d="
	M698.9,110.9c8.4-3.6,15.1-5.2,21.8-5.5c6.9-0.3,13.9,0.8,23,2.7c-8.8-2.8-15.8-4.9-23-5.7c-7.2-0.7-14.6,0-24,2.9L698.9,110.9z"/>
<path id="path4245" inkscape:connector-curvature="0" inkscape:original-d="m 720.92552,148.77416 c 20.8327,-1.70651 44.0062,-13.39029 62.17427,-17.02391" inkscape:path-effect="#path-effect4247" d="
	M721.2,151.8c10.7-1.4,21.9-5.3,32.3-9.4c10.5-4.1,20.7-8.4,29.6-10.7c-9.2,1.3-19.8,4.7-30.6,7.8c-10.9,3.1-21.8,5.9-31.9,6.2
	L721.2,151.8z"/>
<path id="path4249" inkscape:connector-curvature="0" inkscape:original-d="m 731.3251,190.96385 c 21.85883,-5.27105 31.10438,-0.57834 46.6307,11.84272" inkscape:path-effect="#path-effect4251" d="
	M732,193.9c10.5-3,17.8-3.7,24.6-2.2c6.9,1.5,13.2,5.2,21.4,11.1c-7.4-6.5-13.4-11.4-20.5-14c-7.2-2.7-15.4-3-26.8-0.8L732,193.9z"
	/>
<path id="path4253" inkscape:connector-curvature="0" inkscape:original-d="m 713.52382,236.85438 c 8.01126,13.80397 15.60737,13.3337 28.86663,15.54357" inkscape:path-effect="#path-effect4255" d="
	M710.9,238.4c4.7,7.1,9.3,10.4,14.5,12c4.9,1.5,10.4,1.4,17,2c-6.7-1.6-11.6-2.5-15.8-4.8c-4-2.2-7.1-5.6-10.4-12.2L710.9,238.4z"/>
<path id="path4257" inkscape:connector-curvature="0" inkscape:original-d="m 681.69651,274.60305 c 24.76213,-3.56838 34.79957,14.71585 46.63071,33.30765" inkscape:path-effect="#path-effect4259" d="
	M682.1,277.6c5.7-1.1,10.6-0.9,14.9,0.3c4.3,1.2,8.2,3.3,11.8,6.2c7.3,5.9,13.1,14.7,19.5,23.9c-5.4-9.5-10.6-19.1-17.5-26.1
	c-3.5-3.5-7.5-6.4-12.4-8.3s-10.6-2.6-17.2-1.9L682.1,277.6z"/>
<path id="path4261" inkscape:connector-curvature="0" inkscape:original-d="m 649.8692,311.61155 c 7.04437,14.85325 13.73427,17.7865 25.90595,24.4256" inkscape:path-effect="#path-effect4263" d="
	M647.2,312.9c4.1,7.5,8.2,11.9,12.8,15.2c4.5,3.1,9.6,5.1,15.8,8c-5.9-3.8-10.3-6.6-13.9-10.3c-3.5-3.6-6.4-8.1-9.3-15.4
	L647.2,312.9z"/>
<path id="path4265" inkscape:connector-curvature="0" inkscape:original-d="m 621.74275,347.1397 c 17.02207,16.92864 16.56267,33.75899 35.51274,48.40223" inkscape:path-effect="#path-effect4267" sodipodi:nodetypes="cc" d="
	M619.6,349.3c8.5,7.8,12.9,15.6,17.8,23.6c4.9,8,10,15.7,19.8,22.6c-9.1-7.7-13.3-15.8-17.2-24.1c-3.9-8.3-7.7-17.3-16.2-26.5
	L619.6,349.3z"/>
<path id="path4269" inkscape:connector-curvature="0" inkscape:original-d="m 587.69493,386.36871 c 12.75282,6.50856 23.1146,15.7129 33.30765,25.90595" inkscape:path-effect="#path-effect4271" d="
	M586.3,389c12.9,5.4,23.7,13.7,34.7,23.2c-9.4-10.8-19.3-21-31.9-28.6L586.3,389z"/>
<path id="path4273" inkscape:connector-curvature="0" inkscape:original-d="m 558.08813,415.97551 c 12.93011,13.95344 20.41332,32.15222 31.82731,47.37087" inkscape:path-effect="#path-effect4275" d="
	M555.9,418c13.7,13.3,21.3,30.1,34,45.3c-10.2-15.2-17.4-34.8-29.6-49.4L555.9,418z"/>
<path id="path4277" inkscape:connector-curvature="0" inkscape:original-d="m 519.5993,453.72417 c 8.0695,9.09443 17.27235,12.38836 27.38628,17.02391" inkscape:path-effect="#path-effect4279" d="
	M517.4,455.7c4.7,4.5,9.5,7.3,14.4,9.5c4.9,2.1,10,3.7,15.2,5.5c-4.9-2.8-9.5-5.2-13.7-8.2c-4.2-2.9-8-6.3-11.4-10.9L517.4,455.7z"
	/>
<path id="path4281" inkscape:connector-curvature="0" inkscape:original-d="m 493.69335,467.7874 c 19.35887,10.63336 23.44987,29.61484 26.64611,49.59139" inkscape:path-effect="#path-effect4283" d="
	M492.2,470.4c9.3,4.5,15.3,11.1,19.5,19.3c4.2,8.2,6.5,17.7,8.6,27.7c-1.1-10-2.4-20-5.9-28.9c-3.5-9-9.2-17.2-19.3-23.3
	L492.2,470.4z"/>
<path id="path4285" inkscape:connector-curvature="0" inkscape:original-d="m 447.80281,498.87454 c 10.08848,13.30757 21.23177,15.95929 35.52816,20.72476" inkscape:path-effect="#path-effect4287" d="
	M445.4,500.7c5.7,6.7,11.7,10.5,17.9,13.1c6.1,2.5,12.8,3.9,20,5.8c-7.1-2.9-13.2-5.2-18.7-8.5c-5.4-3.3-10.1-7.5-14.5-14
	L445.4,500.7z"/>
<path id="path4289" inkscape:connector-curvature="0" inkscape:original-d="m 410.05415,515.15828 c 10.04753,22.37069 28.38159,16.85417 33.15886,42.65144" inkscape:path-effect="#path-effect4291" sodipodi:nodetypes="cc" d="
	M407.3,516.4c2.9,5.9,6.4,9.8,9.9,12.9c3.5,3,7.2,5.1,10.5,7.2c3.3,2.1,6.4,4.2,9.1,7.4s4.9,7.5,6.4,14c-0.9-6.5-2.8-11.1-5.2-14.8
	c-2.4-3.7-5.4-6.4-8.5-9c-3.2-2.6-6.2-4.9-9.1-8c-2.8-3-5.4-6.8-7.6-12.1L407.3,516.4z"/>
<path id="path4293" inkscape:connector-curvature="0" inkscape:original-d="m 376.00633,523.30015 c 14.69733,15.60407 10.8674,25.81345 12.58289,34.04781" inkscape:path-effect="#path-effect4295" d="
	M373.8,525.4c7.3,7.1,10.4,12.9,11.9,18c1.3,4.4,1.8,10.7,2.9,14c-0.3-3.5,0.6-9.4,0-14.6c-0.7-5.9-3.1-13-10.4-21.6L373.8,525.4z"
	/>
<path id="path4297" inkscape:connector-curvature="0" inkscape:original-d="m 325.67477,528.48134 c -2.0163,15.51039 -15.32104,32.84808 -21.46493,41.44951" inkscape:path-effect="#path-effect4299" d="
	M322.7,528.1c-0.4,7.3-3.6,15.3-7.5,22.9c-3.9,7.6-8.3,14.3-11,18.9c3.5-4,8.8-10.2,13.6-17.4c4.8-7.1,9.3-15.4,10.9-23.7
	L322.7,528.1z"/>
<path id="path4301" inkscape:connector-curvature="0" inkscape:original-d="m 207.24758,401.17211 c -18.12887,-5.80991 -30.30811,4.89688 -44.41019,14.06323" inkscape:path-effect="#path-effect4303" d="
	M208.2,398.3c-10-2.7-18.1-0.8-25.2,2.9c-7,3.6-13.4,9.1-20.1,14c7.4-4.2,14.1-8.7,21.3-11.3c7.1-2.5,14.1-3.1,22.2,0.1L208.2,398.3
	z"/>
<path id="path4305" inkscape:connector-curvature="0" inkscape:original-d="m 207.98775,362.68327 c -19.61907,4.78402 -39.63111,-5.14204 -56.99308,-12.58289" inkscape:path-effect="#path-effect4307" d="
	M207.3,359.8c-9,2.7-18.5,2.1-28.2-0.2c-9.7-2.3-19.1-6.2-28.1-9.4c8.4,4.2,17.7,9,27.2,12.3c9.6,3.3,19.9,5.3,30.5,3.2L207.3,359.8
	z"/>
</svg>
